<?xml version="1.0" encoding="UTF-8"?>
<svg width="28px" height="21px" viewBox="0 0 28 21" version="1.1" xmlns="http://www.w3.org/2000/svg" xmlns:xlink="http://www.w3.org/1999/xlink">
    <defs>
        <path d="M23.5,17.5 L26.5044225,17.5 C27.055163,17.5 27.5,17.0564136 27.5,16.509222 L27.5,12.490778 C27.5,11.9509752 27.0542648,11.5 26.5044225,11.5 L16.5,11.5 L16.5,16.509222 C16.5,17.0490248 16.9457352,17.5 17.4955775,17.5 L18.5,17.5 C18.5,16.1192881 19.6192881,15 21,15 C22.3807119,15 23.5,16.1192881 23.5,17.5 Z" id="path-1"></path>
    </defs>
    <g id="Parts-Catalog" stroke="none" stroke-width="1" fill="none" fill-rule="evenodd">
        <g id="Parts---Locate-on-Map" transform="translate(-394.000000, -731.000000)">
            <g id="Truck-Copy" transform="translate(394.000000, 731.000000)">
                <path d="M3.05000906,17.5 L1.00298309,17.5 C0.449050827,17.5 0,17.0452911 0,16.5000398 L0,1.4999602 C0,0.947697432 0.444630861,0.5 1.00087166,0.5 L14.9991283,0.5 C15.5518945,0.5 16,0.954708934 16,1.4999602 L16,16.5000398 C16,17.0523026 15.5537106,17.5 15.0018837,17.5 L8.11914062,17.5 L7.94999094,17.5 C7.71835578,16.3588798 6.70947896,15.5 5.5,15.5 C4.29052104,15.5 3.28164422,16.3588798 3.05000906,17.5 Z" id="Combined-Shape" fill="#BD0FE1"></path>
                <circle id="Oval-Copy-2" stroke="#BD0FE1" cx="21" cy="17.5" r="2.5"></circle>
                <path d="M17,12 L25.0217039,12 L22.1719966,7.11509724 C21.9838114,6.79251438 21.4740471,6.5 21.099114,6.5 L17.5012291,6.5 C17.2193388,6.5 17,6.72071432 17,7.00138006 L17,12 Z" id="Rectangle-2" stroke="#BD0FE1"></path>
                <g id="Combined-Shape">
                    <use fill="#BD0FE1" fill-rule="evenodd" xlink:href="#path-1"></use>
                    <path stroke="#BD0FE1" stroke-width="1" d="M23.9585208,17 L26.5044225,17 C26.7791804,17 27,16.7801079 27,16.509222 L27,12.490778 C27,12.2245315 26.7755371,12 26.5044225,12 L17,12 L17,16.509222 C17,16.7754685 17.2244629,17 17.4955775,17 L18.0414792,17 C18.2795183,15.5811433 19.5135019,14.5 21,14.5 C22.4864981,14.5 23.7204817,15.5811433 23.9585208,17 Z"></path>
                </g>
                <circle id="Oval-Copy-3" stroke="#BD0FE1" cx="5.5" cy="17.5" r="2.5"></circle>
            </g>
        </g>
    </g>
</svg>