<?xml version="1.0" encoding="UTF-8"?>
<svg width="13px" height="23px" viewBox="0 0 13 23" version="1.1" xmlns="http://www.w3.org/2000/svg" xmlns:xlink="http://www.w3.org/1999/xlink">
    <defs></defs>
    <g id="Parts-Catalog" stroke="none" stroke-width="1" fill="none" fill-rule="evenodd">
        <g id="Parts---Locate-on-Map-Shared-Storage" transform="translate(-339.000000, -445.000000)" fill="#D0011B">
            <path d="M349.833694,446.08651 L345.018639,446.08651 L345.018639,447.897361 L342.069444,447.897361 L342.069444,445 L340.986111,445 L340.986111,447.897361 L339,447.897361 L339,467.454545 L352,467.454545 L352,447.897361 L349.833694,447.897361 L349.833694,446.08651 L349.833694,446.08651 Z M341.076389,457.675953 L344.326389,457.675953 L344.326389,460.935484 L341.076389,460.935484 L341.076389,457.675953 Z M341.076389,451.156891 L344.326389,451.156891 L344.326389,454.416422 L341.076389,454.416422 L341.076389,451.156891 Z M346.583333,457.675953 L349.833333,457.675953 L349.833333,460.935484 L346.583333,460.935484 L346.583333,457.675953 Z M346.583333,451.156891 L349.833333,451.156891 L349.833333,454.416422 L346.583333,454.416422 L346.583333,451.156891 Z" id="building-gray-copy"></path>
        </g>
    </g>
</svg>