<?xml version="1.0" encoding="UTF-8"?>
<svg width="45px" height="45px" viewBox="0 0 45 45" version="1.1" xmlns="http://www.w3.org/2000/svg" xmlns:xlink="http://www.w3.org/1999/xlink">
    <!-- Generator: Sketch 43.1 (39012) - http://www.bohemiancoding.com/sketch -->
    <title>Delete_Blue_02</title>
    <desc>Created with Sketch.</desc>
    <defs></defs>
    <g id="Page-1" stroke="none" stroke-width="1" fill="none" fill-rule="evenodd">
        <g id="Delete_Blue_02">
            <circle id="Oval-2-Copy-2" fill="#005CB9" cx="22.5" cy="22.5" r="22.5"></circle>
            <g id="Group-2" transform="translate(13.000000, 8.000000)" stroke="#FFFFFF">
                <path d="M-2,8.04079968 L19.9564371,8.91905716 C20.5274186,8.94189643 21,9.43087964 21,9.99188419 L21,21.0081158 C21,21.5730901 20.5323256,22.0579073 19.9564371,22.0809428 L-2,22.9592003 L-2,8.04079968 Z" id="Rectangle-2-Copy-5" stroke-width="2" transform="translate(9.500000, 15.500000) rotate(90.000000) translate(-9.500000, -15.500000) "></path>
                <path d="M8.5,-2.37301354 L9.42388816,-2.1621326 C10.0074609,-2.02892994 10.5,-1.41130468 10.5,-0.808661569 L10.5,3.7125203 C10.5,4.31634596 10.0033726,4.96185888 9.42677144,5.11194865 L8.5,5.35318805 L8.5,-2.37301354 Z" id="Rectangle-2-Copy-4" transform="translate(9.500000, 1.500000) scale(1, -1) rotate(90.000000) translate(-9.500000, -1.500000) "></path>
                <path d="M0,4 L19,4" id="Line-Copy-6" stroke-width="2" stroke-linecap="square"></path>
                <path d="M6.5,7.47368421 L6.5,23.4736842" id="Line-Copy-5" stroke-linecap="square"></path>
                <path d="M9.5,7.47368421 L9.5,23.4736842" id="Line-Copy-4" stroke-linecap="square"></path>
                <path d="M12.5,7.47368421 L12.5,23.4736842" id="Line-Copy-3" stroke-linecap="square"></path>
            </g>
        </g>
    </g>
</svg>